<svg xmlns="http://www.w3.org/2000/svg" xmlns:xlink="http://www.w3.org/1999/xlink" version="1.1" id="Capa_1" x="0px" y="0px" width="100px" height="100px" viewBox="0 0 100 100" enable-background="new 0 0 100 100" xml:space="preserve">
<g>
	<path d="M49.925,96.254C24.42,96.254,3.671,75.505,3.671,50S24.42,3.747,49.925,3.747c25.504,0,46.253,20.75,46.253,46.254   S75.429,96.254,49.925,96.254z M49.925,4.747C24.972,4.747,4.671,25.047,4.671,50c0,24.953,20.301,45.253,45.254,45.253   c24.952,0,45.253-20.301,45.253-45.253C95.178,25.047,74.877,4.747,49.925,4.747z"/>
</g>
<g>
	<path d="M49.638,87.59c-20.727,0-37.59-16.862-37.59-37.589s16.863-37.59,37.59-37.59S87.228,29.273,87.228,50   S70.365,87.59,49.638,87.59z M49.638,13.411c-20.176,0-36.59,16.414-36.59,36.59c0,20.175,16.414,36.589,36.59,36.589   c20.175,0,36.589-16.414,36.589-36.589C86.228,29.825,69.813,13.411,49.638,13.411z"/>
</g>
<path fill="#000000" stroke="#000000" stroke-miterlimit="10" d="M-70.264,76.775c0-1.777-1.378-3.217-3.118-3.217  c-1.741,0-3.118,1.439-3.118,3.217c0,0.223,0,50.285,0,50.508c0,1.776,1.377,3.217,3.118,3.217c1.74,0,3.134-1.44,3.134-3.217  C-70.248,127.061-70.264,76.998-70.264,76.775z"/>
<path d="M-8.731,107.704l-1.553-0.484c0.012-0.348-0.227-0.498-0.535-0.336l-2.359,1.328c0.295-2.166-0.533-4.424-2.477-5.787  c-2.81-1.967-10.311,1.045-17.076-5.721c-6.767-6.768-5.02-14.616-5.936-16.45c-1.169-2.34-3.504-3.445-5.754-3.316l1.316-2.342  c0.162-0.307-0.823-1.711-1.17-1.697l-1.985,1.277c-0.347,0.012-0.479,0.264-0.292,0.557l1.529,2.271  c-1.181,0.186-2.308,0.713-3.192,1.598c-1.778,1.779-1.991,4.285-1.814,6.558c0,0.002,1.493,10.703,9.588,18.799  c6.547,6.547,16.05,9.4,19.407,9.426c2.702,0.02,4.341,0.166,6.057-1.545l0,0c0.879-0.881,1.439-1.955,1.695-3.078l2.33,1.568  C-10.661,110.515-8.743,108.05-8.731,107.704z M-19.415,111.567v0.002c0,0-10.383-0.77-19.157-9.121  c-8.613-8.514-9.7-18.867-9.7-18.867h0.001c-0.087-0.438,0.033-0.907,0.367-1.249c0.538-0.557,1.424-0.57,1.979-0.031  c0.263,0.256,0.401,0.59,0.418,0.928h0.006c0,0,1.924,10.06,8.997,17.087c7.239,6.855,17.353,8.471,17.353,8.471v0.006  c0.341,0.008,0.679,0.135,0.941,0.391c0.556,0.539,0.569,1.426,0.03,1.979C-18.509,111.505-18.976,111.64-19.415,111.567z"/>
<path fill="#000000" stroke="#000000" stroke-miterlimit="10" d="M-54.5,120c0,3.037-2.462,5.5-5.5,5.5l0,0  c-3.038,0-5.5-2.463-5.5-5.5V79c0-3.037,2.462-5.5,5.5-5.5l0,0c3.038,0,5.5,2.463,5.5,5.5V120z"/>
<path d="M19.038,46.436c-1.323,0.898-2.143,2.691-2.137,4.674c0.026,13.227,8.292,25.413,20.572,30.326  c1.842,0.74,3.809,0.642,5.133-0.258c0.653-0.441,1.051-1.025,1.15-1.683c0.337-2.16-1.518-4.122-3.524-4.941  c-9.499-3.801-15.896-13.232-15.915-23.467c-0.021-2.163-1.157-4.613-3.286-5.096C20.379,45.84,19.691,45.993,19.038,46.436z"/>
<path d="M27.947,42.927c-1.191,0.921-1.858,2.655-1.737,4.52c0.796,12.435,9.28,23.413,21.111,27.313  c1.775,0.589,3.619,0.382,4.813-0.542c0.587-0.451,0.928-1.024,0.983-1.648c0.189-2.051-1.67-3.787-3.602-4.44  c-9.154-3.021-15.72-11.515-16.333-21.136c-0.147-2.034-1.358-4.27-3.388-4.6C29.172,42.288,28.536,42.472,27.947,42.927z"/>
<g>
	<g>
		<path d="M-75.472,17.452c2.041-0.237,4.309,0.78,5.917,2.653c9.564,11.129,11.453,27.358,4.7,40.387    c-1.134,2.194-3.108,3.704-5.148,3.941c-1.113,0.13-2.141-0.153-2.893-0.799c-2.189-1.86-2.082-5.299-0.846-7.732    c4.899-9.449,3.529-21.217-3.405-29.285c-1.767-2.088-2.66-5.41-0.955-7.725C-77.52,18.094-76.585,17.582-75.472,17.452z     M-70.118,63.441c1.715-0.2,3.393-1.507,4.376-3.408c6.566-12.67,4.729-28.454-4.572-39.275c-1.395-1.626-3.326-2.512-5.041-2.313    c-0.847,0.099-1.517,0.458-1.94,1.038c-1.398,1.899-0.6,4.7,0.91,6.485c7.196,8.371,8.618,20.586,3.534,30.39    c-1.057,2.082-1.19,4.99,0.605,6.516C-71.699,63.344-70.964,63.539-70.118,63.441z"/>
	</g>
	<path d="M-70.118,63.441c1.715-0.2,3.393-1.507,4.376-3.408c6.566-12.67,4.729-28.454-4.572-39.275   c-1.395-1.626-3.326-2.512-5.041-2.313c-0.847,0.099-1.517,0.458-1.94,1.038c-1.398,1.899-0.6,4.7,0.91,6.485   c7.196,8.371,8.618,20.586,3.534,30.39c-1.057,2.082-1.19,4.99,0.605,6.516C-71.699,63.344-70.964,63.539-70.118,63.441z"/>
</g>
<polygon points="48.578,18.252 28.917,21.892 29.796,24.253 50.857,21.022 "/>
<polygon points="63.275,26.139 41.917,29.892 43.297,33.783 63.857,29.022 "/>
<polygon points="53.441,34.668 34.555,41.238 35.781,43.439 56.113,37.061 "/>
<polygon points="45.578,25.252 25.917,28.892 26.796,31.253 45.584,28.17 "/>
<polygon points="40.377,34.911 20.225,34.216 21.45,36.437 42.751,36.958 "/>
<g>
	<path d="M65.717,69.757c-3.274,0-6.027-0.865-7.962-2.5c-0.634-0.535-1.335-0.972-2.072-1.439   c-0.616-0.387-1.258-0.788-1.873-1.276c-1.748-1.35-2.977-2.918-3.486-4.46c-0.934-2.849-1.178-7.145,1.124-10.866   c0.886-1.444,1.41-2.582,1.318-4.362c-0.105-1.938,0.035-3.684,1.319-4.859c1.97-1.833,5.04-2.105,6.697-2.105   c1.479,0,3.718-0.438,4.977-0.066c0.729,0.213,0.768,0.949,1.598,1.041c0.839,0.091,1.72,0.184,2.563,0.431   c1.669,0.47,2.537,1.66,3.396,2.818c0.103,0.139,0.218,0.284,0.32,0.433c0.479,0.635,1.002,1.282,1.524,1.937   c1.872,2.358,4.235,4.651,4.886,7.421c1.058,4.435,1.329,4.454,0.769,9.78c-0.74,2.316-3.904,5.016-5.135,5.711   c-1.227,0.681-2.457,1.111-3.799,1.315c-0.577,0.084-1.152,0.249-1.766,0.42c-0.734,0.203-1.5,0.418-2.299,0.508   C67.11,69.707,66.403,69.757,65.717,69.757z M60.689,39.152c-1.439,0-4.075,0.22-5.671,1.691c-0.941,0.877-1.471,2.297-1.381,3.807   c0.097,2.061,0.087,3.444-1.033,5.262c-1.569,2.564-2.156,5.707-0.889,9.553c0.482,1.471,1.519,3.006,2.925,4.082   c0.546,0.43,1.134,0.804,1.762,1.203c0.778,0.479,1.562,0.979,2.313,1.606c2.099,1.767,4.968,2.137,7.008,2.137   c0.638,0,1.296-0.033,1.955-0.101c0.662-0.064,1.348-0.255,2.052-0.466c0.644-0.184,1.333-0.374,2.022-0.474   c1.162-0.18,2.216-0.533,3.289-1.133c1.816-1.027,3.885-2.678,4.233-4.255l0.35-3.44c-0.147-1.846-0.136-4.52-0.824-6.18   c-1.03-2.483-2.938-4.888-4.773-7.205c-0.55-0.675-1.083-1.35-1.581-2.006c-0.103-0.154-0.224-0.306-0.337-0.455   c-0.764-1.046-1.428-1.94-2.582-2.271c-0.721-0.204-1.504-0.286-2.319-0.379c-0.878-0.095-1.453-1.003-2.342-1.269   C63.74,38.531,62.038,39.152,60.689,39.152z"/>
	<path d="M63.283,43.545c-4.27,0-7.738,3.459-7.738,7.727c0,4.271,3.469,7.717,7.738,7.717c4.261,0,7.713-3.445,7.713-7.717   C70.996,47.005,67.544,43.545,63.283,43.545z M60.487,48.416c-0.175,0.622-0.952,0.684-1.136,1.259   c-0.521,1.559,0.647,2.698,1.197,3.906c0.585,1.315,1.445,2.669,0.093,2.907c-1.107,0.19-2.642-1.744-2.978-2.726   c-0.82-2.269-0.801-6.718,1.613-7.189C59.813,46.475,60.979,46.695,60.487,48.416z"/>
</g>
</svg>