<svg xmlns="http://www.w3.org/2000/svg" xmlns:xlink="http://www.w3.org/1999/xlink" version="1.1" id="Layer_1" x="0px" y="0px" viewBox="0 0 90 90" enable-background="new 0 0 90 90" xml:space="preserve" height="100px" width="100px">
<path d="M83.3,59.9L63.7,77.6l-0.3-22.8l19.6-17L83.3,59.9z M61.8,54.7L47,52.1l0,8.9l-5.7-0.9l0-9l-15.6-2.7l-0.1,9.3l-5.8-0.6  l0.1-9.7L7.5,45.3l0.1,22.9l54.5,9.7L61.8,54.7z M63.3,53l19.6-16.8c0,0-0.8-19.6-10.7-14.7C72.2,21.4,62.2,24.3,63.3,53z M7.7,43.4  l12.1,2.1l0.1-3.4l5.7,0.9l0.1,3.6l15.6,2.8l0-3.9l5.7,0.9l0,4L61.6,53c0,0-1.6-29,10.3-32.6l-54-2.9C17.9,17.5,7.3,17.6,7.7,43.4z   M24.7,47.4l-3.9-0.6v9.5l3.9,0.6V47.4z M21.2,47.3l3.1,0.5v8.6l-3.1-0.5V47.3z M24.7,43.6L20.8,43V46l3.9,0.6V43.6z M21.2,43.5  l3.1,0.5v2.2l-3.1-0.5V43.5z M46.2,50.7l-3.9-0.6v9.5l3.9,0.6V50.7z M42.7,50.6l3.1,0.5v8.6l-3.1-0.5V50.6z M46.2,46.9l-3.9-0.6v3.1  l3.9,0.6V46.9z M42.7,46.8l3.1,0.5v2.2L42.7,49V46.8z M30.6,18.6c0,0.3,5.5-3.3,13-2.7c7.8,0.6,10.8,3.5,11.7,5l4.1,0.1  c0,0-8.2-8.2-18.2-7.5c-8.2,0.5-14.4,5-14.4,5"/>
</svg>